<svg xmlns="http://www.w3.org/2000/svg" xmlns:xlink="http://www.w3.org/1999/xlink" contentStyleType="text/css" data-diagram-type="DESCRIPTION" height="360px" preserveAspectRatio="none" style="width:593px;height:360px;background:#FFFFFF;" version="1.1" viewBox="0 0 593 360" width="593px" zoomAndPan="magnify"><?plantuml 1.2026.3beta4?><defs/><g><!--cluster Order 0--><g class="cluster" data-qualified-name="Order 0" data-source-line="1" id="ent0002"><path d="M156.31,248.59 L217.1518,248.59 A3.75,3.75 0 0 1 219.6518,251.09 L226.6518,270.8869 L311.31,270.8869 A2.5,2.5 0 0 1 313.81,273.3869 L313.81,343.39 A2.5,2.5 0 0 1 311.31,345.89 L156.31,345.89 A2.5,2.5 0 0 1 153.81,343.39 L153.81,251.09 A2.5,2.5 0 0 1 156.31,248.59" fill="none" style="stroke:#000000;stroke-width:1.5;"/><line style="stroke:#000000;stroke-width:1.5;" x1="153.81" x2="226.6518" y1="270.8869" y2="270.8869"/><text fill="#000000" font-family="sans-serif" font-size="14" font-weight="700" lengthAdjust="spacing" textLength="59.8418" x="157.81" y="263.5851">Order 0</text></g><!--cluster Order 1--><g class="cluster" data-qualified-name="Order 1" data-source-line="5" id="ent0004"><path d="M37.31,127.3 L98.1518,127.3 A3.75,3.75 0 0 1 100.6518,129.8 L107.6518,149.5969 L576.31,149.5969 A2.5,2.5 0 0 1 578.81,152.0969 L578.81,222.09 A2.5,2.5 0 0 1 576.31,224.59 L37.31,224.59 A2.5,2.5 0 0 1 34.81,222.09 L34.81,129.8 A2.5,2.5 0 0 1 37.31,127.3" fill="none" style="stroke:#000000;stroke-width:1.5;"/><line style="stroke:#000000;stroke-width:1.5;" x1="34.81" x2="107.6518" y1="149.5969" y2="149.5969"/><text fill="#000000" font-family="sans-serif" font-size="14" font-weight="700" lengthAdjust="spacing" textLength="59.8418" x="38.81" y="142.2951">Order 1</text></g><!--cluster Order 2--><g class="cluster" data-qualified-name="Order 2" data-source-line="11" id="ent0008"><path d="M47.31,6 L108.1518,6 A3.75,3.75 0 0 1 110.6518,8.5 L117.6518,28.2969 L212.31,28.2969 A2.5,2.5 0 0 1 214.81,30.7969 L214.81,100.8 A2.5,2.5 0 0 1 212.31,103.3 L47.31,103.3 A2.5,2.5 0 0 1 44.81,100.8 L44.81,8.5 A2.5,2.5 0 0 1 47.31,6" fill="none" style="stroke:#000000;stroke-width:1.5;"/><line style="stroke:#000000;stroke-width:1.5;" x1="44.81" x2="117.6518" y1="28.2969" y2="28.2969"/><text fill="#000000" font-family="sans-serif" font-size="14" font-weight="700" lengthAdjust="spacing" textLength="59.8418" x="48.81" y="20.9951">Order 2</text></g><!--entity D--><g class="entity" data-qualified-name="Order 0.D" data-source-line="2" id="ent0003"><rect fill="#F1F1F1" height="46.2969" rx="2.5" ry="2.5" style="stroke:#181818;stroke-width:0.5;" width="128.2041" x="169.71" y="283.59"/><rect fill="#F1F1F1" height="10" style="stroke:#181818;stroke-width:0.5;" width="15" x="277.9141" y="288.59"/><rect fill="#F1F1F1" height="2" style="stroke:#181818;stroke-width:0.5;" width="4" x="275.9141" y="290.59"/><rect fill="#F1F1F1" height="2" style="stroke:#181818;stroke-width:0.5;" width="4" x="275.9141" y="294.59"/><text fill="#000000" font-family="sans-serif" font-size="14" lengthAdjust="spacing" textLength="88.2041" x="184.71" y="316.5851">DataStorage</text></g><!--entity R--><g class="entity" data-qualified-name="Order 1.R" data-source-line="6" id="ent0005"><rect fill="#F1F1F1" height="46.2969" rx="2.5" ry="2.5" style="stroke:#181818;stroke-width:0.5;" width="157.373" x="51.13" y="162.3"/><rect fill="#F1F1F1" height="10" style="stroke:#181818;stroke-width:0.5;" width="15" x="188.503" y="167.3"/><rect fill="#F1F1F1" height="2" style="stroke:#181818;stroke-width:0.5;" width="4" x="186.503" y="169.3"/><rect fill="#F1F1F1" height="2" style="stroke:#181818;stroke-width:0.5;" width="4" x="186.503" y="173.3"/><text fill="#000000" font-family="sans-serif" font-size="14" lengthAdjust="spacing" textLength="117.373" x="66.13" y="195.2951">RocketController</text></g><!--entity L--><g class="entity" data-qualified-name="Order 1.L" data-source-line="7" id="ent0006"><rect fill="#F1F1F1" height="46.2969" rx="2.5" ry="2.5" style="stroke:#181818;stroke-width:0.5;" width="190.8691" x="243.38" y="162.3"/><rect fill="#F1F1F1" height="10" style="stroke:#181818;stroke-width:0.5;" width="15" x="414.2491" y="167.3"/><rect fill="#F1F1F1" height="2" style="stroke:#181818;stroke-width:0.5;" width="4" x="412.2491" y="169.3"/><rect fill="#F1F1F1" height="2" style="stroke:#181818;stroke-width:0.5;" width="4" x="412.2491" y="173.3"/><text fill="#000000" font-family="sans-serif" font-size="14" lengthAdjust="spacing" textLength="150.8691" x="258.38" y="195.2951">LandingPadController</text></g><!--entity G--><g class="entity" data-qualified-name="Order 1.G" data-source-line="8" id="ent0007"><rect fill="#F1F1F1" height="46.2969" rx="2.5" ry="2.5" style="stroke:#181818;stroke-width:0.5;" width="93.0947" x="469.27" y="162.3"/><rect fill="#F1F1F1" height="10" style="stroke:#181818;stroke-width:0.5;" width="15" x="542.3647" y="167.3"/><rect fill="#F1F1F1" height="2" style="stroke:#181818;stroke-width:0.5;" width="4" x="540.3647" y="169.3"/><rect fill="#F1F1F1" height="2" style="stroke:#181818;stroke-width:0.5;" width="4" x="540.3647" y="173.3"/><text fill="#000000" font-family="sans-serif" font-size="14" lengthAdjust="spacing" textLength="53.0947" x="484.27" y="195.2951">Gauges</text></g><!--entity S--><g class="entity" data-qualified-name="Order 2.S" data-source-line="12" id="ent0009"><rect fill="#F1F1F1" height="46.2969" rx="2.5" ry="2.5" style="stroke:#181818;stroke-width:0.5;" width="138.4238" x="60.6" y="41"/><rect fill="#F1F1F1" height="10" style="stroke:#181818;stroke-width:0.5;" width="15" x="179.0238" y="46"/><rect fill="#F1F1F1" height="2" style="stroke:#181818;stroke-width:0.5;" width="4" x="177.0238" y="48"/><rect fill="#F1F1F1" height="2" style="stroke:#181818;stroke-width:0.5;" width="4" x="177.0238" y="52"/><text fill="#000000" font-family="sans-serif" font-size="14" lengthAdjust="spacing" textLength="98.4238" x="75.6" y="73.9951">StateManager</text></g><!--link S to R--><g class="link" data-entity-1="ent0009" data-entity-2="ent0005" data-link-type="dependency" data-source-line="15" id="lnk10"><path d="M129.81,87.59 C129.81,108.92 129.81,134.81 129.81,156.11" fill="none" id="S-to-R" style="stroke:#181818;stroke-width:1;"/><polygon fill="#181818" points="129.81,162.11,133.81,153.11,129.81,157.11,125.81,153.11,129.81,162.11" style="stroke:#181818;stroke-width:1;"/></g><!--link S to L--><g class="link" data-entity-1="ent0009" data-entity-2="ent0006" data-link-type="dependency" data-source-line="16" id="lnk11"><path d="M170.03,87.72 C187.23,97.41 207.53,108.87 225.81,119.3 C250.5,133.37 272.9456,146.307 294.7056,158.887" fill="none" id="S-to-L" style="stroke:#181818;stroke-width:1;"/><polygon fill="#181818" points="299.9,161.89,294.1104,153.9225,295.5713,159.3875,290.1064,160.8484,299.9,161.89" style="stroke:#181818;stroke-width:1;"/></g><!--link S to D--><g class="link" data-entity-1="ent0009" data-entity-2="ent0003" data-link-type="dependency" data-source-line="17" id="lnk12"><path d="M68.65,87.53 C55.19,95.44 42.63,105.84 34.81,119.3 C9.51,162.83 6,191.3 34.81,232.59 C64.94,275.76 117.5743,292.5787 163.4043,299.8587" fill="none" id="S-to-D" style="stroke:#181818;stroke-width:1;"/><polygon fill="#181818" points="169.33,300.8,161.069,295.4376,164.3919,300.0156,159.8139,303.3385,169.33,300.8" style="stroke:#181818;stroke-width:1;"/></g><!--link R to D--><g class="link" data-entity-1="ent0005" data-entity-2="ent0003" data-link-type="dependency" data-source-line="19" id="lnk13"><path d="M149.37,208.88 C167.97,230.21 191.826,257.5884 210.396,278.8784" fill="none" id="R-to-D" style="stroke:#181818;stroke-width:1;"/><polygon fill="#181818" points="214.34,283.4,211.4385,273.9882,211.0534,279.632,205.4096,279.2468,214.34,283.4" style="stroke:#181818;stroke-width:1;"/></g><!--link L to D--><g class="link" data-entity-1="ent0006" data-entity-2="ent0003" data-link-type="dependency" data-source-line="20" id="lnk14"><path d="M319.06,208.88 C300.29,230.21 276.1855,257.6073 257.4355,278.8973" fill="none" id="L-to-D" style="stroke:#181818;stroke-width:1;"/><polygon fill="#181818" points="253.47,283.4,262.4201,279.2896,256.7746,279.6477,256.4165,274.0022,253.47,283.4" style="stroke:#181818;stroke-width:1;"/></g><!--link G to D--><g class="link" data-entity-1="ent0007" data-entity-2="ent0003" data-link-type="dependency" data-source-line="21" id="lnk15"><path d="M488.32,209.05 C477.43,217.25 464.49,226.09 451.81,232.59 C402.62,257.84 348.6289,275.5662 304.1189,287.9962" fill="none" id="G-to-D" style="stroke:#181818;stroke-width:1;"/><polygon fill="#181818" points="298.34,289.61,308.0842,291.0418,303.1557,288.2651,305.9324,283.3367,298.34,289.61" style="stroke:#181818;stroke-width:1;"/></g><?plantuml-src ROt12i8m38RlUOgm-q1z02yMUgaewr4yX3KKsMX7bvt4TxUkPQ3OorVo_Sa_KJ-GPsmkoN72NODFmFnkYeIin9Jb7Mb61I-0wJkztz9Tx0UMKmoIuZXoMbUwuWm5zmZ-Ikx7c-8rBPxdTQB_b1os4YiaVAQGPJbWFt6BRNlCNOMcKW5qzMCgTU4R?></g></svg>