<svg xmlns="http://www.w3.org/2000/svg" xmlns:xlink="http://www.w3.org/1999/xlink" contentStyleType="text/css" data-diagram-type="CLASS" height="630px" preserveAspectRatio="none" style="width:1028px;height:630px;background:#FFFFFF;" version="1.1" viewBox="0 0 1028 630" width="1028px" zoomAndPan="magnify"><?plantuml 1.2026.3beta4?><defs/><g><!--cluster RocketGameObject--><g class="cluster" data-qualified-name="RocketGameObject" data-source-line="1" id="ent0002"><path d="M13.21,6 L164.6348,6 A3.75,3.75 0 0 1 167.1348,8.5 L174.1348,28.2969 L238.21,28.2969 A2.5,2.5 0 0 1 240.71,30.7969 L240.71,167.69 A2.5,2.5 0 0 1 238.21,170.19 L13.21,170.19 A2.5,2.5 0 0 1 10.71,167.69 L10.71,8.5 A2.5,2.5 0 0 1 13.21,6" fill="none" style="stroke:#000000;stroke-width:1.5;"/><line style="stroke:#000000;stroke-width:1.5;" x1="10.71" x2="174.1348" y1="28.2969" y2="28.2969"/><text fill="#000000" font-family="sans-serif" font-size="14" font-weight="700" lengthAdjust="spacing" textLength="150.4248" x="14.71" y="20.9951">RocketGameObject</text></g><!--cluster LandingPadGameObject--><g class="cluster" data-qualified-name="LandingPadGameObject" data-source-line="10" id="ent0004"><path d="M309.21,38.59 L499.3125,38.59 A3.75,3.75 0 0 1 501.8125,41.09 L508.8125,60.8869 L518.21,60.8869 A2.5,2.5 0 0 1 520.71,63.3869 L520.71,135.09 A2.5,2.5 0 0 1 518.21,137.59 L309.21,137.59 A2.5,2.5 0 0 1 306.71,135.09 L306.71,41.09 A2.5,2.5 0 0 1 309.21,38.59" fill="none" style="stroke:#000000;stroke-width:1.5;"/><line style="stroke:#000000;stroke-width:1.5;" x1="306.71" x2="508.8125" y1="60.8869" y2="60.8869"/><text fill="#000000" font-family="sans-serif" font-size="14" font-weight="700" lengthAdjust="spacing" textLength="189.1025" x="310.71" y="53.5851">LandingPadGameObject</text></g><!--cluster SceneManager--><g class="cluster" data-qualified-name="SceneManager" data-source-line="14" id="ent0006"><path d="M104.21,241.38 L221.7627,241.38 A3.75,3.75 0 0 1 224.2627,243.88 L231.2627,263.6769 L492.21,263.6769 A2.5,2.5 0 0 1 494.71,266.1769 L494.71,613.25 A2.5,2.5 0 0 1 492.21,615.75 L104.21,615.75 A2.5,2.5 0 0 1 101.71,613.25 L101.71,243.88 A2.5,2.5 0 0 1 104.21,241.38" fill="none" style="stroke:#000000;stroke-width:1.5;"/><line style="stroke:#000000;stroke-width:1.5;" x1="101.71" x2="231.2627" y1="263.6769" y2="263.6769"/><text fill="#000000" font-family="sans-serif" font-size="14" font-weight="700" lengthAdjust="spacing" textLength="116.5527" x="105.71" y="256.3751">SceneManager</text></g><!--class RocketController--><g class="entity" data-qualified-name="RocketGameObject.RocketController" data-source-line="2" id="ent0003"><rect fill="#F1F1F1" height="113.1875" rx="2.5" ry="2.5" style="stroke:#181818;stroke-width:0.5;" width="197.6162" x="26.9" y="41"/><ellipse cx="63.6094" cy="57" fill="#ADD1B2" rx="11" ry="11" style="stroke:#181818;stroke-width:1;"/><path d="M66.5782,62.6406 Q66,62.9375 65.3594,63.0781 Q64.7188,63.2344 64.0157,63.2344 Q61.5157,63.2344 60.1875,61.5938 Q58.875,59.9375 58.875,56.8125 Q58.875,53.6875 60.1875,52.0313 Q61.5157,50.375 64.0157,50.375 Q64.7188,50.375 65.3594,50.5313 Q66.0157,50.6875 66.5782,50.9844 L66.5782,53.7031 Q65.9532,53.125 65.3594,52.8594 Q64.7657,52.5781 64.1407,52.5781 Q62.7969,52.5781 62.1094,53.6563 Q61.4219,54.7188 61.4219,56.8125 Q61.4219,58.9063 62.1094,59.9844 Q62.7969,61.0469 64.1407,61.0469 Q64.7657,61.0469 65.3594,60.7813 Q65.9532,60.5 66.5782,59.9219 L66.5782,62.6406 Z " fill="#000000"/><text fill="#000000" font-family="sans-serif" font-size="14" lengthAdjust="spacing" textLength="117.373" x="82.4337" y="61.8467">RocketController</text><line style="stroke:#181818;stroke-width:0.5;" x1="27.9" x2="223.5162" y1="73" y2="73"/><g data-visibility-modifier="PUBLIC_FIELD"><ellipse cx="37.9" cy="86.6484" fill="none" rx="3" ry="3" style="stroke:#038048;stroke-width:1;"/></g><text fill="#000000" font-family="sans-serif" font-size="14" lengthAdjust="spacing" textLength="170.6182" x="46.9" y="89.9951">initialPosition : Vector2d</text><g data-visibility-modifier="PUBLIC_FIELD"><ellipse cx="37.9" cy="102.9453" fill="none" rx="3" ry="3" style="stroke:#038048;stroke-width:1;"/></g><text fill="#000000" font-family="sans-serif" font-size="14" lengthAdjust="spacing" textLength="171.6162" x="46.9" y="106.292">initialVelocity : Vector2d</text><g data-visibility-modifier="PUBLIC_FIELD"><ellipse cx="37.9" cy="119.2422" fill="none" rx="3" ry="3" style="stroke:#038048;stroke-width:1;"/></g><text fill="#000000" font-family="sans-serif" font-size="14" lengthAdjust="spacing" textLength="105.3896" x="46.9" y="122.5889">initialTilt : float</text><line style="stroke:#181818;stroke-width:0.5;" x1="27.9" x2="223.5162" y1="129.8906" y2="129.8906"/><g data-visibility-modifier="PUBLIC_METHOD"><ellipse cx="37.9" cy="143.5391" fill="#84BE84" rx="3" ry="3" style="stroke:#038048;stroke-width:1;"/></g><text fill="#000000" font-family="sans-serif" font-size="14" lengthAdjust="spacing" textLength="46.6895" x="46.9" y="146.8857">reset()</text></g><!--class LandingPadController--><g class="entity" data-qualified-name="LandingPadGameObject.LandingPadController" data-source-line="11" id="ent0005"><rect fill="#F1F1F1" height="48" rx="2.5" ry="2.5" style="stroke:#181818;stroke-width:0.5;" width="182.8691" x="322.28" y="73.59"/><ellipse cx="337.28" cy="89.59" fill="#ADD1B2" rx="11" ry="11" style="stroke:#181818;stroke-width:1;"/><path d="M340.2488,95.2306 Q339.6706,95.5275 339.03,95.6681 Q338.3894,95.8244 337.6863,95.8244 Q335.1863,95.8244 333.8581,94.1838 Q332.5456,92.5275 332.5456,89.4025 Q332.5456,86.2775 333.8581,84.6213 Q335.1863,82.965 337.6863,82.965 Q338.3894,82.965 339.03,83.1213 Q339.6863,83.2775 340.2488,83.5744 L340.2488,86.2931 Q339.6238,85.715 339.03,85.4494 Q338.4363,85.1681 337.8113,85.1681 Q336.4675,85.1681 335.78,86.2463 Q335.0925,87.3088 335.0925,89.4025 Q335.0925,91.4963 335.78,92.5744 Q336.4675,93.6369 337.8113,93.6369 Q338.4363,93.6369 339.03,93.3713 Q339.6238,93.09 340.2488,92.5119 L340.2488,95.2306 Z " fill="#000000"/><text fill="#000000" font-family="sans-serif" font-size="14" lengthAdjust="spacing" textLength="150.8691" x="351.28" y="94.4367">LandingPadController</text><line style="stroke:#181818;stroke-width:0.5;" x1="323.28" x2="504.1491" y1="105.59" y2="105.59"/><line style="stroke:#181818;stroke-width:0.5;" x1="323.28" x2="504.1491" y1="113.59" y2="113.59"/></g><!--class StateManager--><g class="entity" data-qualified-name="SceneManager.StateManager" data-source-line="15" id="ent0007"><rect fill="#F1F1F1" height="48" rx="2.5" ry="2.5" style="stroke:#181818;stroke-width:0.5;" width="130.4238" x="348.5" y="280.08"/><ellipse cx="363.5" cy="296.08" fill="#ADD1B2" rx="11" ry="11" style="stroke:#181818;stroke-width:1;"/><path d="M366.4688,301.7206 Q365.8906,302.0175 365.25,302.1581 Q364.6094,302.3144 363.9063,302.3144 Q361.4063,302.3144 360.0781,300.6738 Q358.7656,299.0175 358.7656,295.8925 Q358.7656,292.7675 360.0781,291.1113 Q361.4063,289.455 363.9063,289.455 Q364.6094,289.455 365.25,289.6113 Q365.9063,289.7675 366.4688,290.0644 L366.4688,292.7831 Q365.8438,292.205 365.25,291.9394 Q364.6563,291.6581 364.0313,291.6581 Q362.6875,291.6581 362,292.7363 Q361.3125,293.7988 361.3125,295.8925 Q361.3125,297.9863 362,299.0644 Q362.6875,300.1269 364.0313,300.1269 Q364.6563,300.1269 365.25,299.8613 Q365.8438,299.58 366.4688,299.0019 L366.4688,301.7206 Z " fill="#000000"/><text fill="#000000" font-family="sans-serif" font-size="14" lengthAdjust="spacing" textLength="98.4238" x="377.5" y="300.9267">StateManager</text><line style="stroke:#181818;stroke-width:0.5;" x1="349.5" x2="477.9238" y1="312.08" y2="312.08"/><line style="stroke:#181818;stroke-width:0.5;" x1="349.5" x2="477.9238" y1="320.08" y2="320.08"/></g><g class="entity" data-qualified-name="SceneManager.GMN8" data-source-line="19" id="ent0009"><path d="M117.73,276.38 L117.73,331.7784 A0,0 0 0 0 117.73,331.7784 L313.6904,331.7784 A0,0 0 0 0 313.6904,331.7784 L313.6904,308.08 L348.23,304.08 L313.6904,300.08 L313.6904,286.38 L303.6904,276.38 L117.73,276.38 A0,0 0 0 0 117.73,276.38" fill="#FEFFDD" style="stroke:#181818;stroke-width:0.5;"/><path d="M303.6904,276.38 L303.6904,286.38 L313.6904,286.38 L303.6904,276.38" fill="#FEFFDD" style="stroke:#181818;stroke-width:0.5;"/><text fill="#000000" font-family="sans-serif" font-size="13" lengthAdjust="spacing" textLength="134.0054" x="123.73" y="293.4469">Controlls restart and</text><text fill="#000000" font-family="sans-serif" font-size="13" lengthAdjust="spacing" textLength="174.9604" x="123.73" y="308.5797">successfull landing screen.</text><text fill="#000000" font-family="sans-serif" font-size="13" lengthAdjust="spacing" textLength="93.0059" x="123.73" y="323.7125">Resets rocket.</text></g><!--class DataStorage--><g class="entity" data-qualified-name="SceneManager.DataStorage" data-source-line="24" id="ent0011"><rect fill="#F1F1F1" height="162.0781" rx="2.5" ry="2.5" style="stroke:#181818;stroke-width:0.5;" width="175.0713" x="206.17" y="437.67"/><ellipse cx="245.8602" cy="453.67" fill="#ADD1B2" rx="11" ry="11" style="stroke:#181818;stroke-width:1;"/><path d="M248.829,459.3106 Q248.2509,459.6075 247.6102,459.7481 Q246.9696,459.9044 246.2665,459.9044 Q243.7665,459.9044 242.4384,458.2637 Q241.1259,456.6075 241.1259,453.4825 Q241.1259,450.3575 242.4384,448.7012 Q243.7665,447.045 246.2665,447.045 Q246.9696,447.045 247.6102,447.2012 Q248.2665,447.3575 248.829,447.6544 L248.829,450.3731 Q248.204,449.795 247.6102,449.5294 Q247.0165,449.2481 246.3915,449.2481 Q245.0477,449.2481 244.3602,450.3262 Q243.6727,451.3887 243.6727,453.4825 Q243.6727,455.5762 244.3602,456.6544 Q245.0477,457.7169 246.3915,457.7169 Q247.0165,457.7169 247.6102,457.4512 Q248.204,457.17 248.829,456.5919 L248.829,459.3106 Z " fill="#000000"/><text fill="#000000" font-family="sans-serif" font-size="14" lengthAdjust="spacing" textLength="88.2041" x="265.347" y="458.5167">DataStorage</text><line style="stroke:#181818;stroke-width:0.5;" x1="207.17" x2="380.2413" y1="469.67" y2="469.67"/><g data-visibility-modifier="PUBLIC_FIELD"><ellipse cx="217.17" cy="483.3184" fill="none" rx="3" ry="3" style="stroke:#038048;stroke-width:1;"/></g><text fill="#000000" font-family="sans-serif" font-size="14" lengthAdjust="spacing" textLength="87.3633" x="226.17" y="486.6651">speed : float</text><g data-visibility-modifier="PUBLIC_FIELD"><ellipse cx="217.17" cy="499.6153" fill="none" rx="3" ry="3" style="stroke:#038048;stroke-width:1;"/></g><text fill="#000000" font-family="sans-serif" font-size="14" lengthAdjust="spacing" textLength="98.7793" x="226.17" y="502.962">altitude : float</text><g data-visibility-modifier="PUBLIC_FIELD"><ellipse cx="217.17" cy="515.9122" fill="none" rx="3" ry="3" style="stroke:#038048;stroke-width:1;"/></g><text fill="#000000" font-family="sans-serif" font-size="14" lengthAdjust="spacing" textLength="71.374" x="226.17" y="519.2589">fuel : float</text><g data-visibility-modifier="PUBLIC_FIELD"><ellipse cx="217.17" cy="532.2091" fill="none" rx="3" ry="3" style="stroke:#038048;stroke-width:1;"/></g><text fill="#000000" font-family="sans-serif" font-size="14" lengthAdjust="spacing" textLength="63.8271" x="226.17" y="535.5557">tilt : float</text><g data-visibility-modifier="PUBLIC_FIELD"><ellipse cx="217.17" cy="548.5059" fill="none" rx="3" ry="3" style="stroke:#038048;stroke-width:1;"/></g><text fill="#000000" font-family="sans-serif" font-size="14" lengthAdjust="spacing" textLength="101.6709" x="226.17" y="551.8526">heading : float</text><g data-visibility-modifier="PUBLIC_FIELD"><ellipse cx="217.17" cy="564.8028" fill="none" rx="3" ry="3" style="stroke:#038048;stroke-width:1;"/></g><text fill="#000000" font-family="sans-serif" font-size="14" lengthAdjust="spacing" textLength="142.2354" x="226.17" y="568.1495">timeToImpact : float</text><g data-visibility-modifier="PUBLIC_FIELD"><ellipse cx="217.17" cy="581.0997" fill="none" rx="3" ry="3" style="stroke:#038048;stroke-width:1;"/></g><text fill="#000000" font-family="sans-serif" font-size="14" lengthAdjust="spacing" textLength="149.0713" x="226.17" y="584.4464">startTime : DateTime</text><line style="stroke:#181818;stroke-width:0.5;" x1="207.17" x2="380.2413" y1="591.7481" y2="591.7481"/></g><!--class GaugeController--><g class="entity" data-qualified-name="GaugeController" data-source-line="38" id="ent0013"><rect fill="#F1F1F1" height="129.4844" rx="2.5" ry="2.5" style="stroke:#181818;stroke-width:0.5;" width="182.5088" x="559.46" y="32.85"/><ellipse cx="590.4508" cy="48.85" fill="#ADD1B2" rx="11" ry="11" style="stroke:#181818;stroke-width:1;"/><path d="M593.4196,54.4906 Q592.8414,54.7875 592.2008,54.9281 Q591.5602,55.0844 590.8571,55.0844 Q588.3571,55.0844 587.0289,53.4438 Q585.7164,51.7875 585.7164,48.6625 Q585.7164,45.5375 587.0289,43.8813 Q588.3571,42.225 590.8571,42.225 Q591.5602,42.225 592.2008,42.3813 Q592.8571,42.5375 593.4196,42.8344 L593.4196,45.5531 Q592.7946,44.975 592.2008,44.7094 Q591.6071,44.4281 590.9821,44.4281 Q589.6383,44.4281 588.9508,45.5063 Q588.2633,46.5688 588.2633,48.6625 Q588.2633,50.7563 588.9508,51.8344 Q589.6383,52.8969 590.9821,52.8969 Q591.6071,52.8969 592.2008,52.6313 Q592.7946,52.35 593.4196,51.7719 L593.4196,54.4906 Z " fill="#000000"/><text fill="#000000" font-family="sans-serif" font-size="14" lengthAdjust="spacing" textLength="114.9736" x="608.0043" y="53.6967">GaugeController</text><line style="stroke:#181818;stroke-width:0.5;" x1="560.46" x2="740.9688" y1="64.85" y2="64.85"/><g data-visibility-modifier="PUBLIC_FIELD"><ellipse cx="570.46" cy="78.4984" fill="none" rx="3" ry="3" style="stroke:#038048;stroke-width:1;"/></g><text fill="#000000" font-family="sans-serif" font-size="14" lengthAdjust="spacing" textLength="148.8525" x="579.46" y="81.8451">gaugeObject : Gauge</text><g data-visibility-modifier="PUBLIC_FIELD"><ellipse cx="570.46" cy="94.7953" fill="none" rx="3" ry="3" style="stroke:#038048;stroke-width:1;"/></g><text fill="#000000" font-family="sans-serif" font-size="14" lengthAdjust="spacing" textLength="75.5713" x="579.46" y="98.142">max : float</text><g data-visibility-modifier="PUBLIC_FIELD"><ellipse cx="570.46" cy="111.0922" fill="none" rx="3" ry="3" style="stroke:#038048;stroke-width:1;"/></g><text fill="#000000" font-family="sans-serif" font-size="14" lengthAdjust="spacing" textLength="71.4697" x="579.46" y="114.4389">min : float</text><line style="stroke:#181818;stroke-width:0.5;" x1="560.46" x2="740.9688" y1="121.7406" y2="121.7406"/><g data-visibility-modifier="PUBLIC_METHOD"><ellipse cx="570.46" cy="135.3891" fill="#84BE84" rx="3" ry="3" style="stroke:#038048;stroke-width:1;"/></g><text fill="#000000" font-family="sans-serif" font-size="14" lengthAdjust="spacing" textLength="145.9951" x="579.46" y="138.7357">setValue(float value)</text><g data-visibility-modifier="PUBLIC_METHOD"><ellipse cx="570.46" cy="151.6859" fill="#84BE84" rx="3" ry="3" style="stroke:#038048;stroke-width:1;"/></g><text fill="#000000" font-family="sans-serif" font-size="14" lengthAdjust="spacing" textLength="156.5088" x="579.46" y="155.0326">increment(float value)</text></g><!--class IndicatorController--><g class="entity" data-qualified-name="IndicatorController" data-source-line="47" id="ent0014"><rect fill="#F1F1F1" height="145.7813" rx="2.5" ry="2.5" style="stroke:#181818;stroke-width:0.5;" width="163.0381" x="777.19" y="24.7"/><ellipse cx="792.19" cy="40.7" fill="#ADD1B2" rx="11" ry="11" style="stroke:#181818;stroke-width:1;"/><path d="M795.1588,46.3406 Q794.5806,46.6375 793.94,46.7781 Q793.2994,46.9344 792.5963,46.9344 Q790.0963,46.9344 788.7681,45.2938 Q787.4556,43.6375 787.4556,40.5125 Q787.4556,37.3875 788.7681,35.7313 Q790.0963,34.075 792.5963,34.075 Q793.2994,34.075 793.94,34.2313 Q794.5963,34.3875 795.1588,34.6844 L795.1588,37.4031 Q794.5338,36.825 793.94,36.5594 Q793.3463,36.2781 792.7213,36.2781 Q791.3775,36.2781 790.69,37.3563 Q790.0025,38.4188 790.0025,40.5125 Q790.0025,42.6063 790.69,43.6844 Q791.3775,44.7469 792.7213,44.7469 Q793.3463,44.7469 793.94,44.4813 Q794.5338,44.2 795.1588,43.6219 L795.1588,46.3406 Z " fill="#000000"/><text fill="#000000" font-family="sans-serif" font-size="14" lengthAdjust="spacing" textLength="131.0381" x="806.19" y="45.5467">IndicatorController</text><line style="stroke:#181818;stroke-width:0.5;" x1="778.19" x2="939.2281" y1="56.7" y2="56.7"/><g data-visibility-modifier="PUBLIC_FIELD"><ellipse cx="788.19" cy="70.3484" fill="none" rx="3" ry="3" style="stroke:#038048;stroke-width:1;"/></g><text fill="#000000" font-family="sans-serif" font-size="14" lengthAdjust="spacing" textLength="120.8389" x="797.19" y="73.6951">indicator : Object</text><g data-visibility-modifier="PUBLIC_FIELD"><ellipse cx="788.19" cy="86.6453" fill="none" rx="3" ry="3" style="stroke:#038048;stroke-width:1;"/></g><text fill="#000000" font-family="sans-serif" font-size="14" lengthAdjust="spacing" textLength="84.6426" x="797.19" y="89.992">color : Color</text><g data-visibility-modifier="PUBLIC_FIELD"><ellipse cx="788.19" cy="102.9422" fill="none" rx="3" ry="3" style="stroke:#038048;stroke-width:1;"/></g><text fill="#000000" font-family="sans-serif" font-size="14" lengthAdjust="spacing" textLength="78.9893" x="797.19" y="106.2889">state : bool</text><line style="stroke:#181818;stroke-width:0.5;" x1="778.19" x2="939.2281" y1="113.5906" y2="113.5906"/><g data-visibility-modifier="PUBLIC_METHOD"><ellipse cx="788.19" cy="127.2391" fill="#84BE84" rx="3" ry="3" style="stroke:#038048;stroke-width:1;"/></g><text fill="#000000" font-family="sans-serif" font-size="14" lengthAdjust="spacing" textLength="59.8076" x="797.19" y="130.5857">turnOn()</text><g data-visibility-modifier="PUBLIC_METHOD"><ellipse cx="788.19" cy="143.5359" fill="#84BE84" rx="3" ry="3" style="stroke:#038048;stroke-width:1;"/></g><text fill="#000000" font-family="sans-serif" font-size="14" lengthAdjust="spacing" textLength="60.792" x="797.19" y="146.8826">turnOff()</text><g data-visibility-modifier="PUBLIC_METHOD"><ellipse cx="788.19" cy="159.8328" fill="#84BE84" rx="3" ry="3" style="stroke:#038048;stroke-width:1;"/></g><text fill="#000000" font-family="sans-serif" font-size="14" lengthAdjust="spacing" textLength="55.2549" x="797.19" y="163.1795">toggle()</text></g><!--class NumericController--><g class="entity" data-qualified-name="NumericController" data-source-line="57" id="ent0015"><rect fill="#F1F1F1" height="96.8906" rx="2.5" ry="2.5" style="stroke:#181818;stroke-width:0.5;" width="274.0352" x="513.69" y="255.63"/><ellipse cx="582.4014" cy="271.63" fill="#ADD1B2" rx="11" ry="11" style="stroke:#181818;stroke-width:1;"/><path d="M585.3702,277.2706 Q584.7921,277.5675 584.1514,277.7081 Q583.5108,277.8644 582.8077,277.8644 Q580.3077,277.8644 578.9796,276.2238 Q577.6671,274.5675 577.6671,271.4425 Q577.6671,268.3175 578.9796,266.6613 Q580.3077,265.005 582.8077,265.005 Q583.5108,265.005 584.1514,265.1613 Q584.8077,265.3175 585.3702,265.6144 L585.3702,268.3331 Q584.7452,267.755 584.1514,267.4894 Q583.5577,267.2081 582.9327,267.2081 Q581.5889,267.2081 580.9014,268.2863 Q580.2139,269.3488 580.2139,271.4425 Q580.2139,273.5363 580.9014,274.6144 Q581.5889,275.6769 582.9327,275.6769 Q583.5577,275.6769 584.1514,275.4113 Q584.7452,275.13 585.3702,274.5519 L585.3702,277.2706 Z " fill="#000000"/><text fill="#000000" font-family="sans-serif" font-size="14" lengthAdjust="spacing" textLength="128.1123" x="602.9014" y="276.4767">NumericController</text><line style="stroke:#181818;stroke-width:0.5;" x1="514.69" x2="786.7252" y1="287.63" y2="287.63"/><g data-visibility-modifier="PUBLIC_FIELD"><ellipse cx="524.69" cy="301.2784" fill="none" rx="3" ry="3" style="stroke:#038048;stroke-width:1;"/></g><text fill="#000000" font-family="sans-serif" font-size="14" lengthAdjust="spacing" textLength="248.0352" x="533.69" y="304.6251">displayes : SevenSegmentDisplay[]</text><line style="stroke:#181818;stroke-width:0.5;" x1="514.69" x2="786.7252" y1="311.9269" y2="311.9269"/><g data-visibility-modifier="PUBLIC_METHOD"><ellipse cx="524.69" cy="325.5753" fill="#84BE84" rx="3" ry="3" style="stroke:#038048;stroke-width:1;"/></g><text fill="#000000" font-family="sans-serif" font-size="14" lengthAdjust="spacing" textLength="132.7949" x="533.69" y="328.922">setValue(int value)</text><g data-visibility-modifier="PUBLIC_METHOD"><ellipse cx="524.69" cy="341.8722" fill="#84BE84" rx="3" ry="3" style="stroke:#038048;stroke-width:1;"/></g><text fill="#000000" font-family="sans-serif" font-size="14" lengthAdjust="spacing" textLength="143.3086" x="533.69" y="345.2189">increment(int value)</text></g><!--class TiltHeadingController--><g class="entity" data-qualified-name="TiltHeadingController" data-source-line="64" id="ent0016"><rect fill="#F1F1F1" height="113.1875" rx="2.5" ry="2.5" style="stroke:#181818;stroke-width:0.5;" width="190.7188" x="822.35" y="247.48"/><ellipse cx="841.6114" cy="263.48" fill="#ADD1B2" rx="11" ry="11" style="stroke:#181818;stroke-width:1;"/><path d="M844.5801,269.1206 Q844.002,269.4175 843.3614,269.5581 Q842.7208,269.7144 842.0176,269.7144 Q839.5176,269.7144 838.1895,268.0738 Q836.877,266.4175 836.877,263.2925 Q836.877,260.1675 838.1895,258.5113 Q839.5176,256.855 842.0176,256.855 Q842.7208,256.855 843.3614,257.0113 Q844.0176,257.1675 844.5801,257.4644 L844.5801,260.1831 Q843.9551,259.605 843.3614,259.3394 Q842.7676,259.0581 842.1426,259.0581 Q840.7989,259.0581 840.1114,260.1363 Q839.4239,261.1988 839.4239,263.2925 Q839.4239,265.3863 840.1114,266.4644 Q840.7989,267.5269 842.1426,267.5269 Q842.7676,267.5269 843.3614,267.2613 Q843.9551,266.98 844.5801,266.4019 L844.5801,269.1206 Z " fill="#000000"/><text fill="#000000" font-family="sans-serif" font-size="14" lengthAdjust="spacing" textLength="149.249" x="856.5583" y="268.3267">TiltHeadingController</text><line style="stroke:#181818;stroke-width:0.5;" x1="823.35" x2="1012.0688" y1="279.48" y2="279.48"/><g data-visibility-modifier="PUBLIC_FIELD"><ellipse cx="833.35" cy="293.1284" fill="none" rx="3" ry="3" style="stroke:#038048;stroke-width:1;"/></g><text fill="#000000" font-family="sans-serif" font-size="14" lengthAdjust="spacing" textLength="123.5664" x="842.35" y="296.4751">tiltObject : Object</text><g data-visibility-modifier="PUBLIC_FIELD"><ellipse cx="833.35" cy="309.4253" fill="none" rx="3" ry="3" style="stroke:#038048;stroke-width:1;"/></g><text fill="#000000" font-family="sans-serif" font-size="14" lengthAdjust="spacing" textLength="161.4102" x="842.35" y="312.772">headingObject : Object</text><line style="stroke:#181818;stroke-width:0.5;" x1="823.35" x2="1012.0688" y1="320.0738" y2="320.0738"/><g data-visibility-modifier="PUBLIC_METHOD"><ellipse cx="833.35" cy="333.7222" fill="#84BE84" rx="3" ry="3" style="stroke:#038048;stroke-width:1;"/></g><text fill="#000000" font-family="sans-serif" font-size="14" lengthAdjust="spacing" textLength="128.2832" x="842.35" y="337.0689">setTilt(float value)</text><g data-visibility-modifier="PUBLIC_METHOD"><ellipse cx="833.35" cy="350.0191" fill="#84BE84" rx="3" ry="3" style="stroke:#038048;stroke-width:1;"/></g><text fill="#000000" font-family="sans-serif" font-size="14" lengthAdjust="spacing" textLength="164.7188" x="842.35" y="353.3657">setHeading(float value)</text></g><!--link StateManager to DataStorage--><g class="link" data-entity-1="ent0007" data-entity-2="ent0011" data-link-type="composition" data-source-line="34" id="lnk12"><path codeLine="34" d="M400.64,328.24 C385.88,354.39 366.9376,387.9493 344.9176,426.9693" fill="none" id="StateManager-to-DataStorage" style="stroke:#181818;stroke-width:1;"/><polygon fill="#181818" points="339.02,437.42,345.4524,434.1605,344.9176,426.9693,338.4852,430.2288,339.02,437.42" style="stroke:#181818;stroke-width:1;"/><text fill="#000000" font-family="sans-serif" font-size="13" lengthAdjust="spacing" textLength="94.5547" x="364.71" y="403.7369">sets start time</text></g><!--link RocketController to DataStorage--><g class="link" data-entity-1="ent0003" data-entity-2="ent0011" data-link-type="composition" data-source-line="72" id="lnk17"><path codeLine="72" d="M82.98,154.63 C46.73,209.54 6,294.39 42.71,360.67 C77.27,423.06 137.0476,459.2763 194.6776,483.6463" fill="none" id="RocketController-to-DataStorage" style="stroke:#181818;stroke-width:1;"/><polygon fill="#181818" points="205.73,488.32,201.7617,482.299,194.6776,483.6463,198.6459,489.6673,205.73,488.32" style="stroke:#181818;stroke-width:1;"/><text fill="#000000" font-family="sans-serif" font-size="13" lengthAdjust="spacing" textLength="56.6401" x="43.71" y="308.6469">writes to</text></g><!--reverse link RocketController to StateManager--><g class="link" data-entity-1="ent0003" data-entity-2="ent0007" data-link-type="composition" data-source-line="73" id="lnk18"><path codeLine="73" d="M191.2818,162.5265 C216.5718,184.8765 238.83,201.18 270.71,217.48 C295.27,230.05 306.22,220.67 330.71,233.38 C353.59,245.25 375.75,264.38 391.41,279.6" fill="none" id="RocketController-backto-StateManager" style="stroke:#181818;stroke-width:1;"/><polygon fill="#181818" points="182.29,154.58,184.1371,161.5505,191.2818,162.5265,189.4348,155.556,182.29,154.58" style="stroke:#181818;stroke-width:1;"/><text fill="#000000" font-family="sans-serif" font-size="13" lengthAdjust="spacing" textLength="133.9482" x="271.71" y="213.5469">emits collision event</text></g><!--reverse link LandingPadController to StateManager--><g class="link" data-entity-1="ent0005" data-entity-2="ent0007" data-link-type="composition" data-source-line="74" id="lnk19"><path codeLine="74" d="M413.71,134.05 C413.71,173.39 413.71,240.21 413.71,279.58" fill="none" id="LandingPadController-backto-StateManager" style="stroke:#181818;stroke-width:1;"/><polygon fill="#181818" points="413.71,122.05,409.71,128.05,413.71,134.05,417.71,128.05,413.71,122.05" style="stroke:#181818;stroke-width:1;"/><text fill="#000000" font-family="sans-serif" font-size="13" lengthAdjust="spacing" textLength="129.6064" x="414.71" y="213.5469">emits landing event</text></g><?plantuml-src ZLJ1Rjim3BtxAtJC6YI77NDjWQx0jXPraCkm0olJdbfP2YowMp7atqT9jc97xb0VR8kF8fyUAHfeqHr1edYqyWNfbjVtJyyeIVmj13zIWtC3U6qDTLPhx0RGFsjb52dG3zRnrngn4mVURhlFLUPpG6sbehV_-UoL9iPhRO7EO8SEQVKf64x5gIXC8luLJALCym3LE-JF3kS3p4EK4Wr-0mDDEbhSMXBG11ZI-xUnX49ZJSBMCxV4UKpc19Cdw4WmZuIwNafqhkwr5ZeI54vsY6QRV1xzeNbx43-QqLGXTJ4XUGC49Ol9sQTrSKV4AbSID2dgAyoHkaUTMscn7hyG0kK5znRtzgvbNHUs1HtsxC8GqqR_EuWQFZEzDvkhsTbs8iWHjVHvV16BgC4jz0rc_Rbkl7beYLrqYa0BVsRirgqooH0jdEm0kiTLC8fN_nyRa5kLAzMYeJbs6jdSSJqbCEsSaHeXpXQ9HRkqEjYk_RSOnI9_wYThzS29-ixSc-4Un5LTfwLj6esh2O_lVOkTaZcBIhcZXZTq7Bx4LpGbDluyDz7-u-Ub1igyfy04INdz7VuIEoJFxHigbMGgmT1JbrXYugCk58EH8LTMZSkPjitccE-nwUtVpXlkTwU8HIBxWL1NcyqyrAoPTm9RnTtBTTRA-JdfPQTYQNfjboRM1-EFioH4_mS0?></g></svg>